<?xml version="1.0" standalone="no"?>
<!DOCTYPE svg PUBLIC "-//W3C//DTD SVG 20010904//EN"
 "http://www.w3.org/TR/2001/REC-SVG-20010904/DTD/svg10.dtd">
<svg version="1.0" xmlns="http://www.w3.org/2000/svg"
 width="5509.000000pt" height="5509.000000pt" viewBox="0 0 5509.000000 5509.000000"
 preserveAspectRatio="xMidYMid meet">
<metadata>
Created by potrace 1.14, written by Peter Selinger 2001-2017
</metadata>
<g transform="translate(0.000000,5509.000000) scale(0.100000,-0.100000)"
fill="#000000" stroke="none">
<path d="M26720 53813 c-1048 -38 -1936 -122 -2935 -278 -2985 -466 -5980
-1509 -8750 -3047 -3481 -1934 -6508 -4582 -8801 -7698 -1522 -2069 -2709
-4349 -3476 -6675 -327 -993 -764 -2634 -1023 -3840 -334 -1552 -511 -2858
-565 -4170 -13 -308 -13 -1064 0 -1355 39 -876 123 -1589 296 -2510 465 -2472
1148 -4772 2059 -6935 414 -982 945 -2066 1460 -2980 986 -1750 2159 -3380
3460 -4810 538 -591 1253 -1298 1840 -1820 2940 -2614 6408 -4450 10343 -5475
554 -144 958 -236 1702 -385 861 -173 1262 -260 1659 -360 119 -29 246 -59
282 -64 176 -28 1536 -107 2287 -132 449 -15 1492 -6 1812 15 1122 75 1987
220 3810 640 1028 236 2263 533 2615 627 3956 1063 7645 3134 10720 6018 2299
2156 4207 4731 5581 7536 800 1632 1403 3283 1839 5035 246 991 647 3083 814
4255 125 873 170 1399 178 2085 11 879 -49 1551 -237 2665 -498 2952 -1324
5769 -2420 8250 -221 501 -654 1389 -900 1850 -968 1807 -2078 3409 -3375
4870 -615 693 -1375 1450 -2076 2066 -3394 2985 -7699 5042 -12859 6143 -1297
277 -2446 420 -3810 476 -213 9 -1317 11 -1530 3z m1830 -2107 c655 -37 1121
-80 1720 -156 1752 -224 3624 -697 5265 -1330 3638 -1404 6828 -3784 9254
-6905 1895 -2437 3277 -5284 4010 -8259 299 -1213 476 -2356 576 -3719 l7 -89
-30 16 c-17 9 -46 35 -65 58 -53 65 -254 370 -455 691 -236 376 -369 553 -633
843 -357 394 -880 842 -1611 1382 -1713 1264 -4099 2355 -6898 3152 -157 45
-411 119 -565 165 -1703 508 -3250 870 -4806 1125 -1367 223 -2571 332 -3664
332 -561 0 -975 -21 -1360 -69 -112 -14 -282 -16 -1210 -18 -1024 -1 -1205 -5
-1750 -35 -1460 -82 -2433 -291 -2957 -636 -101 -67 -265 -232 -316 -319 -286
-486 -1 -1137 897 -2049 460 -466 812 -771 1811 -1571 940 -751 1329 -1071
1868 -1533 2377 -2039 3380 -3382 3382 -4529 1 -632 -284 -1193 -914 -1800
-763 -737 -2052 -1509 -4256 -2553 -1571 -745 -2354 -1184 -2671 -1499 -99
-99 -139 -167 -139 -237 0 -114 101 -180 360 -237 168 -37 283 -52 800 -101
978 -94 1405 -110 2900 -110 1405 1 2559 31 3560 95 572 36 1127 97 1365 151
78 18 142 21 490 28 607 12 1175 54 1915 140 1771 208 3857 614 5570 1084
3195 876 6175 2275 8078 3794 474 378 921 809 1230 1187 38 47 38 55 17 -156
-217 -2221 -787 -4345 -1707 -6359 -111 -242 -425 -875 -548 -1105 -486 -904
-961 -1649 -1644 -2580 -486 -663 -649 -903 -752 -1110 -92 -185 -110 -290
-69 -391 l13 -31 -52 19 c-96 37 -193 9 -318 -93 -35 -29 -151 -141 -258 -249
-283 -285 -465 -457 -699 -659 -1706 -1478 -3356 -2533 -5196 -3323 -2397
-1029 -5179 -1601 -8580 -1763 -1609 -76 -3566 -63 -5120 36 -2794 177 -5078
615 -7054 1353 -1691 633 -3190 1510 -4506 2638 -526 451 -877 793 -1532 1493
-154 165 -314 332 -354 371 -146 140 -257 205 -353 207 l-52 2 18 30 c31 52
24 113 -25 208 -60 117 -122 203 -617 862 -240 319 -504 675 -587 790 -1041
1457 -1876 2975 -2506 4560 -919 2313 -1386 4737 -1387 7195 -1 3235 807 6480
2358 9475 2265 4372 5974 7947 10422 10045 2591 1222 5422 1928 8220 2050 135
6 277 12 315 14 209 10 1542 -3 1795 -18z m-475 -14875 c514 -528 1387 -1250
2680 -2219 275 -205 505 -379 510 -385 13 -14 37 -31 -325 233 -1824 1336
-2707 2071 -3054 2544 -77 105 -77 109 -1 26 38 -41 123 -131 190 -199z m3226
-2628 c13 -16 12 -17 -3 -4 -17 13 -22 21 -14 21 2 0 10 -8 17 -17z m40 -30
c13 -16 12 -17 -3 -4 -17 13 -22 21 -14 21 2 0 10 -8 17 -17z m40 -30 c13 -16
12 -17 -3 -4 -17 13 -22 21 -14 21 2 0 10 -8 17 -17z m70 -50 c13 -16 12 -17
-3 -4 -17 13 -22 21 -14 21 2 0 10 -8 17 -17z m13889 -18283 c755 -754 1204
-1512 1364 -2303 35 -170 32 -195 -4 -36 -126 560 -391 1107 -807 1664 -181
242 -369 458 -658 755 -99 101 -160 168 -135 150 24 -19 132 -123 240 -230z
m1397 -2512 c-3 -7 -5 -2 -5 12 0 14 2 19 5 13 2 -7 2 -19 0 -25z"/>
</g>
</svg>
